<svg id="Capa_1" enable-background="new 0 0 512 512" height="512" viewBox="0 0 512 512" width="512" xmlns="http://www.w3.org/2000/svg">
  <g>
    <path d="m457.495 459.5c0 20.678-16.822 37.5-37.499 37.5h-45v15h45c28.948 0 52.499-23.551 52.499-52.5v-36.001h-15z"/>
    <path d="m54.504 459.5v-36.001h-15v36.001c0 28.949 23.551 52.5 52.5 52.5h267.992v-15h-267.992c-20.677 0-37.5-16.822-37.5-37.5z"/>
    <path d="m122.004 467h15v15h-15z"/>
    <path d="m344.996 423.499h15v15h-15z"/>
    <path d="m69.504 444.5v15c0 12.407 10.094 22.5 22.5 22.5h15v-15h-15c-4.065 0-7.5-3.435-7.5-7.5v-15z"/>
    <path d="m374.996 423.499h67.5v15h-67.5z"/>
    <path d="m469.009 328.007c2.204-3.478 3.486-7.595 3.486-12.008s-1.282-8.53-3.486-12.007c13.912-6.991 23.486-21.39 23.486-37.992s-9.574-31.002-23.486-37.993c2.204-3.478 3.486-7.594 3.486-12.008 0-12.407-10.093-22.5-22.499-22.5h-186.496v15h186.496c4.135 0 7.499 3.364 7.499 7.5s-3.364 7.5-7.499 7.5c-12.095 0-21.05 4.801-28.951 9.036-6.723 3.604-12.528 6.716-19.548 6.716s-12.826-3.112-19.549-6.716c-7.901-4.235-16.855-9.036-28.95-9.036s-21.05 4.801-28.951 9.036c-6.723 3.604-12.528 6.716-19.548 6.716s-12.826-3.112-19.549-6.716c-7.901-4.235-16.855-9.036-28.95-9.036-12.094 0-21.049 4.8-28.95 9.036-6.723 3.604-12.529 6.716-19.549 6.716s-12.826-3.112-19.548-6.716c-7.901-4.235-16.856-9.036-28.95-9.036-12.095 0-21.049 4.8-28.951 9.036-6.723 3.604-12.529 6.716-19.549 6.716s-12.826-3.112-19.549-6.716c-7.9-4.235-16.855-9.036-28.95-9.036-4.136 0-7.5-3.364-7.5-7.5s3.364-7.5 7.5-7.5h186.496v-15h-186.496c-12.407 0-22.5 10.093-22.5 22.5 0 4.413 1.282 8.53 3.486 12.008-13.912 6.991-23.486 21.39-23.486 37.992s9.574 31.002 23.486 37.993c-2.204 3.478-3.486 7.595-3.486 12.008s1.282 8.53 3.486 12.008c-13.912 6.991-23.486 21.39-23.486 37.992 0 23.435 19.065 42.5 42.5 42.5h129.982v-15h-129.982c-15.163 0-27.5-12.336-27.5-27.5 0-15.163 12.336-27.5 27.5-27.5 8.328 0 14.902 3.524 21.863 7.255 7.429 3.982 15.849 8.496 26.635 8.496 10.787 0 19.207-4.514 26.636-8.496 6.961-3.731 13.536-7.256 21.864-7.256s14.902 3.524 21.863 7.255c7.429 3.982 15.849 8.496 26.635 8.496s19.207-4.514 26.635-8.496c6.961-3.731 13.536-7.256 21.864-7.256 8.327 0 14.902 3.524 21.863 7.255 7.429 3.982 15.849 8.496 26.636 8.496 10.786 0 19.206-4.514 26.635-8.496 6.961-3.731 13.536-7.256 21.864-7.256 8.327 0 14.902 3.524 21.863 7.255 7.429 3.982 15.849 8.496 26.636 8.496 10.786 0 19.206-4.514 26.635-8.496 6.961-3.731 13.536-7.256 21.864-7.256 15.163 0 27.499 12.336 27.499 27.5 0 15.163-12.336 27.5-27.499 27.5h-243.01v15h243.01c23.434 0 42.499-19.065 42.499-42.5.001-16.598-9.573-30.998-23.485-37.989zm-47.964 4.528c-6.723 3.604-12.528 6.716-19.548 6.716s-12.826-3.112-19.549-6.716c-7.901-4.235-16.855-9.035-28.95-9.035s-21.05 4.8-28.951 9.036c-6.723 3.604-12.528 6.716-19.548 6.716s-12.826-3.112-19.549-6.716c-7.901-4.235-16.856-9.035-28.95-9.035s-21.049 4.8-28.95 9.035c-6.723 3.604-12.529 6.716-19.549 6.716s-12.826-3.112-19.549-6.716c-7.9-4.235-16.855-9.035-28.95-9.035s-21.049 4.8-28.95 9.035c-6.723 3.604-12.529 6.716-19.549 6.716s-12.826-3.112-19.549-6.716c-7.9-4.235-16.855-9.035-28.95-9.035-4.136 0-7.5-3.364-7.5-7.5s3.364-7.5 7.5-7.5h186.496v-15h-186.496c-15.163 0-27.5-12.336-27.5-27.5 0-15.163 12.336-27.5 27.5-27.5 8.328 0 14.902 3.524 21.863 7.256 7.429 3.982 15.849 8.496 26.635 8.496s19.207-4.514 26.636-8.496c6.961-3.731 13.536-7.256 21.864-7.256s14.902 3.524 21.863 7.256c7.429 3.982 15.849 8.496 26.635 8.496s19.207-4.514 26.636-8.496c6.961-3.731 13.536-7.256 21.863-7.256s14.902 3.524 21.863 7.256c7.429 3.982 15.849 8.496 26.636 8.496 10.786 0 19.206-4.514 26.635-8.496 6.961-3.731 13.536-7.256 21.864-7.256 8.327 0 14.902 3.524 21.863 7.256 7.429 3.982 15.849 8.496 26.636 8.496 10.786 0 19.206-4.514 26.635-8.496 6.961-3.731 13.536-7.256 21.864-7.256 15.163 0 27.499 12.336 27.499 27.5 0 15.163-12.336 27.5-27.499 27.5h-186.495v15h186.496c4.135 0 7.499 3.364 7.499 7.5s-3.364 7.5-7.499 7.5c-12.095-.001-21.05 4.799-28.951 9.034z"/>
    <path d="m54.504 148.477c0-28.464 8.949-55.686 25.88-78.722l-12.086-8.883c-18.837 25.629-28.794 55.923-28.794 87.605v30.023h15z"/>
    <path d="m187.981 15h136.039c73.599 0 133.476 59.877 133.476 133.477v30.023h15v-30.023c0-39.503-15.487-76.747-43.608-104.868-28.122-28.122-65.365-43.609-104.868-43.609h-136.039c-41.529 0-81.508 17.735-109.686 48.658l11.087 10.103c25.343-27.811 61.28-43.761 98.599-43.761z"/>
    <path d="m427.495 148.477h15c0-31.495-12.365-61.206-34.818-83.658-22.452-22.454-52.162-34.819-83.657-34.819v15c57.056 0 103.475 46.419 103.475 103.477z"/>
    <path d="m294.019 30h15.001v15h-15.001z"/>
    <path d="m241.598 424.246-42.111 20.34-42.112-20.34-6.523 13.506 48.635 23.492 48.635-23.492z"/>
    <path d="m439.995 258.5h15v15h-15z"/>
    <path d="m368.499 126.75h15v15h-15z"/>
    <path d="m338.499 81.75h15v15h-15z"/>
    <path d="m308.499 126.75h15.001v15h-15.001z"/>
    <path d="m248.5 126.75h15v15h-15z"/>
    <path d="m128.5 126.75h15v15h-15z"/>
    <path d="m158.501 81.75h15v15h-15z"/>
    <path d="m188.5 126.75h15v15h-15z"/>
    <path d="m278.5 81.75h15v15h-15z"/>
    <path d="m218.5 81.75h15v15h-15z"/>
    <path d="m439.995 358.5h15v15h-15z"/>
  </g>
</svg>