<svg width="52" height="53" viewBox="0 0 52 53" fill="none" xmlns="http://www.w3.org/2000/svg">
    <g clip-path="url(#clip0)">
        <path d="M27.8523 0.822951C26.4795 -0.120403 24.6887 -0.0986971 23.3367 0.87972L3.10736 15.5142C2.0287 16.2956 1.38568 17.5729 1.38568 18.9404V34.7086C1.38568 36.1111 2.06246 37.4184 3.18935 38.1915L23.7499 52.3084C25.0938 53.2317 26.8396 53.2317 28.1835 52.3084L49.1523 37.9193C50.2776 37.1463 50.956 35.8389 50.956 34.4364V18.9437C50.956 17.5429 50.2792 16.2355 49.1539 15.4625L27.8523 0.822951ZM43.5147 17.9035L35.7647 23.3082L28.497 17.8183L28.4503 7.0207L43.5147 17.9035ZM23.1921 7.03072V17.598L15.7443 23.0076L8.31582 17.8334L23.1921 7.03072ZM6.27906 23.041L11.0872 26.387L6.27906 29.8816V23.041ZM23.3191 45.5697L8.31903 35.121L15.8118 29.6812L23.3191 34.9123V45.5697ZM20.4705 26.3002L25.3269 22.7722L30.9838 26.6341L25.9699 30.132L20.4705 26.3002ZM28.6175 45.5697V34.9089L35.792 29.915L43.5163 35.1894L28.6175 45.5697ZM45.6575 30.0619L40.5648 26.5857L45.6575 23.0377V30.0619Z" fill="#645F6B"/>
    </g>
    <defs>
        <clipPath id="clip0">
            <rect x="0.720154" y="0.130371" width="50.903" height="52.8696" fill="white"/>
        </clipPath>
    </defs>
</svg>
