<svg width="52" height="41" viewBox="0 0 52 41" fill="none" xmlns="http://www.w3.org/2000/svg">
    <path d="M45.2459 0.487305H6.42571C3.09424 0.487305 0.384338 3.19075 0.384338 6.5136V34.6168C0.384338 37.9397 3.09424 40.643 6.42571 40.643H45.2459C48.5774 40.643 51.2873 37.9397 51.2873 34.6168V6.5136C51.2873 3.19075 48.5774 0.487305 45.2459 0.487305ZM45.2459 35.3228H6.42571C5.93677 35.3228 5.50679 34.993 5.50679 34.6168V10.2298L23.0643 25.6251C23.4233 25.9408 23.8814 26.1146 24.3529 26.1146L27.3187 26.1147C27.7889 26.1147 28.247 25.9408 28.6074 25.6251L46.1649 10.2292V34.6171C46.1649 34.993 45.7349 35.3228 45.2459 35.3228ZM25.8358 20.8321L8.75921 5.80751H42.9124L25.8358 20.8321Z" fill="#645F6B"/>
</svg>
