<svg width="52" height="52" viewBox="0 0 52 52" fill="none" xmlns="http://www.w3.org/2000/svg">
    <path d="M47.8243 13.3776C45.5484 9.32732 42.4612 6.12078 38.5621 3.75724C34.6622 1.39341 30.4049 0.211914 25.7869 0.211914C21.1695 0.211914 16.9106 1.39383 13.0117 3.75724C9.11216 6.12065 6.02516 9.32732 3.74926 13.3776C1.47363 17.4276 0.335815 21.8503 0.335815 26.6456C0.335815 32.4057 1.95386 37.5854 5.19075 42.1859C8.42724 46.7868 12.6084 49.9704 17.7338 51.7371C18.3304 51.8521 18.7721 51.7713 19.0591 51.4965C19.3465 51.2214 19.4899 50.8768 19.4899 50.4643C19.4899 50.3954 19.4842 49.7762 19.4732 48.6057C19.4618 47.4353 19.4565 46.4141 19.4565 45.5428L18.6942 45.6799C18.2083 45.7723 17.5951 45.8115 16.855 45.8004C16.1151 45.7897 15.3471 45.7091 14.5519 45.5594C13.7564 45.4109 13.0164 45.0667 12.3315 44.5276C11.6469 43.9883 11.1609 43.2824 10.8735 42.411L10.5423 41.6191C10.3214 41.0916 9.97362 40.5059 9.49848 39.8638C9.02335 39.2212 8.54298 38.7854 8.05699 38.556L7.82498 38.3836C7.6704 38.269 7.52693 38.1307 7.39418 37.9701C7.2617 37.8097 7.16244 37.6491 7.09613 37.4883C7.02982 37.3273 7.08474 37.1953 7.26183 37.0918C7.43879 36.9883 7.75867 36.9379 8.22283 36.9379L8.88537 37.0409C9.32729 37.1328 9.87383 37.4075 10.5258 37.8667C11.1775 38.3256 11.7132 38.922 12.133 39.656C12.6413 40.597 13.2539 41.3141 13.9722 41.8076C14.6901 42.301 15.4137 42.5474 16.1427 42.5474C16.8715 42.5474 17.5011 42.4899 18.0316 42.3757C18.5615 42.261 19.0586 42.0885 19.5228 41.8592C19.7215 40.3211 20.263 39.1395 21.1464 38.3136C19.8872 38.1762 18.7552 37.9691 17.7496 37.6939C16.7447 37.4183 15.7062 36.9711 14.6349 36.3509C13.563 35.7316 12.6738 34.9627 11.967 34.0452C11.2601 33.1273 10.68 31.9222 10.2275 30.431C9.77457 28.9393 9.54818 27.2185 9.54818 25.2682C9.54818 22.4911 10.421 20.128 12.1663 18.1774C11.3488 16.0896 11.426 13.7492 12.3982 11.1563C13.0389 10.9496 13.9891 11.1047 15.2482 11.6208C16.5076 12.1371 17.4297 12.5795 18.0154 12.9461C18.601 13.3127 19.0703 13.6234 19.4239 13.8754C21.4789 13.279 23.5997 12.9808 25.7866 12.9808C27.9737 12.9808 30.0949 13.279 32.15 13.8754L33.4094 13.0498C34.2704 12.4988 35.2873 11.9939 36.4575 11.5349C37.6285 11.0762 38.5239 10.9499 39.1428 11.1566C40.1366 13.7497 40.2251 16.09 39.4073 18.1778C41.1525 20.1284 42.0258 22.4921 42.0258 25.2685C42.0258 27.2189 41.7984 28.9451 41.3463 30.4483C40.8937 31.9517 40.3086 33.1556 39.5909 34.0625C38.8722 34.9692 37.9772 35.7322 36.906 36.3513C35.8343 36.971 34.7955 37.4183 33.7906 37.6938C32.7851 37.9694 31.6532 38.1766 30.394 38.3142C31.5424 39.3464 32.1167 40.9757 32.1167 43.2014V50.4633C32.1167 50.8758 32.2548 51.2203 32.5313 51.4955C32.8075 51.7703 33.2435 51.8512 33.8402 51.7361C38.9662 49.9696 43.1474 46.7858 46.3837 42.1849C49.6198 37.5844 51.2384 32.4048 51.2384 26.6446C51.2373 21.8499 50.0988 17.4276 47.8243 13.3776Z" fill="#645F6B"/>
</svg>
