<svg width="52" height="54" viewBox="0 0 52 54" fill="none" xmlns="http://www.w3.org/2000/svg">
    <path d="M35.3465 0.56543H16.2579C7.47448 0.56543 0.350739 7.96383 0.350739 17.0872V36.9133C0.350739 46.0366 7.47448 53.435 16.2579 53.435H35.3465C44.13 53.435 51.2537 46.0366 51.2537 36.9133V17.0872C51.2537 7.96383 44.13 0.56543 35.3465 0.56543ZM46.4823 36.9133C46.4823 43.2906 41.4871 48.4785 35.3465 48.4785H16.2579C10.1174 48.4785 5.12222 43.2906 5.12222 36.9133V17.0872C5.12222 10.7098 10.1174 5.52195 16.2579 5.52195H35.3465C41.4871 5.52195 46.4823 10.7098 46.4823 17.0872V36.9133Z" fill="#645F6B"/>
    <path d="M25.8022 13.7827C18.7749 13.7827 13.0765 19.7008 13.0765 27.0001C13.0765 34.2994 18.7749 40.2175 25.8022 40.2175C32.8295 40.2175 38.528 34.2994 38.528 27.0001C38.528 19.7008 32.8295 13.7827 25.8022 13.7827ZM25.8022 35.261C21.4179 35.261 17.848 31.5534 17.848 27.0001C17.848 22.4434 21.4179 18.7392 25.8022 18.7392C30.1866 18.7392 33.7565 22.4434 33.7565 27.0001C33.7565 31.5534 30.1866 35.261 25.8022 35.261Z" fill="#645F6B"/>
    <path d="M39.4818 14.5528C40.4195 14.5528 41.1776 13.7642 41.1776 12.7915C41.1776 11.8189 40.4195 11.0303 39.4818 11.0303C38.5454 11.0303 37.7872 11.8189 37.7872 12.7915C37.7872 13.7642 38.5454 14.5528 39.4818 14.5528Z" fill="#645F6B"/>
</svg>
