<svg width="51" height="54" viewBox="0 0 51 54" fill="none" xmlns="http://www.w3.org/2000/svg">
    <path d="M50.903 32.5882V53.0434H39.9929V33.958C39.9929 29.1637 38.4147 25.8917 34.4657 25.8917C31.4511 25.8917 29.657 28.0967 28.8678 30.2299C28.5799 30.9923 28.5058 32.0538 28.5058 33.1212V53.0434H17.5921C17.5921 53.0434 17.739 20.7192 17.5921 17.3701H28.5047V22.4266C28.4826 22.4645 28.4538 22.5052 28.4331 22.542H28.5047V22.4266C29.9547 19.9995 32.544 16.5321 38.3396 16.5321C45.5201 16.5319 50.903 21.6307 50.903 32.5882ZM6.1757 0.173828C2.44208 0.173828 0 2.83567 0 6.33619C0 9.76033 2.37144 12.5029 6.03084 12.5029H6.10374C9.90966 12.5029 12.2766 9.76075 12.2766 6.33619C12.2049 2.83567 9.90966 0.173828 6.1757 0.173828ZM0.648185 53.0434H11.5579V17.3701H0.648185V53.0434Z" fill="#645F6B"/>
</svg>
